<svg xmlns="http://www.w3.org/2000/svg" width="1024" height="1024" viewBox="0 0 1024 1024"><path d="M615.9 332.0L512.0 512.0 M615.9 332.0L512.0 152.0 M615.9 332.0L823.8 332.0 M719.8 512.0L512.0 512.0 M719.8 512.0L823.8 332.0 M719.8 512.0L823.8 692.0 M615.9 692.0L512.0 512.0 M615.9 692.0L823.8 692.0 M615.9 692.0L512.0 872.0 M408.1 692.0L512.0 512.0 M408.1 692.0L512.0 872.0 M408.1 692.0L200.2 692.0 M304.2 512.0L512.0 512.0 M304.2 512.0L200.2 692.0 M304.2 512.0L200.2 332.0 M408.1 332.0L512.0 512.0 M408.1 332.0L200.2 332.0 M408.1 332.0L512.0 152.0" fill="none" stroke="#dcc196" stroke-width="15" stroke-linecap="round" stroke-linejoin="round"/></svg>
